<?xml version="1.0" standalone="no"?>
<!DOCTYPE svg PUBLIC "-//W3C//DTD SVG 20010904//EN"
 "http://www.w3.org/TR/2001/REC-SVG-20010904/DTD/svg10.dtd">
<svg version="1.0" xmlns="http://www.w3.org/2000/svg"
 width="260.000000pt" height="260.000000pt" viewBox="0 0 260.000000 260.000000"
 preserveAspectRatio="xMidYMid meet">
<metadata>
Created by potrace 1.14, written by Peter Selinger 2001-2017
</metadata>
<g transform="translate(0.000000,260.000000) scale(0.100000,-0.100000)"
fill="#000000" stroke="none">
<path d="M1120 2578 c-223 -41 -394 -107 -540 -209 -34 -24 -70 -48 -79 -54
-32 -20 -230 -225 -236 -245 -3 -11 -11 -20 -16 -20 -5 0 -9 -6 -9 -14 0 -8
-4 -16 -8 -18 -11 -4 -75 -113 -102 -172 -80 -178 -114 -340 -113 -531 1 -146
8 -196 46 -350 24 -96 98 -253 170 -359 57 -85 63 -91 158 -186 94 -92 106
-103 159 -140 19 -13 38 -29 42 -35 4 -5 8 -6 8 -1 0 5 8 2 18 -6 20 -19 134
-78 143 -75 4 1 16 -7 28 -17 12 -11 21 -16 21 -13 0 3 17 -1 38 -10 117 -50
301 -80 467 -77 71 1 145 4 163 8 17 3 46 8 63 11 18 3 40 10 49 15 10 5 19 7
22 5 7 -7 192 56 199 67 3 5 8 9 10 7 12 -8 185 91 245 140 18 14 41 33 53 42
38 29 106 96 151 149 25 29 51 58 57 66 7 7 13 15 13 18 0 2 17 31 39 63 56
85 129 244 146 316 2 10 7 27 10 37 7 21 14 55 20 90 2 14 7 36 10 50 17 72
11 308 -10 419 -3 14 -8 42 -11 61 -3 19 -11 44 -17 55 -6 11 -9 20 -8 20 9 0
-51 148 -93 227 -57 111 -176 265 -259 337 -10 9 -31 26 -45 39 -15 13 -47 37
-72 54 -25 18 -47 34 -50 37 -18 21 -203 111 -277 136 -26 8 -55 18 -63 22 -8
3 -23 7 -32 8 -10 2 -19 3 -20 5 -3 2 -14 4 -98 20 -76 15 -325 20 -390 8z
m358 -117 c11 -6 22 -8 25 -5 5 6 134 -24 152 -34 6 -4 17 -7 25 -9 8 -1 23
-6 35 -12 11 -5 54 -25 95 -45 146 -68 293 -183 390 -305 14 -17 35 -43 47
-57 56 -70 161 -288 178 -370 18 -91 18 -97 0 -110 -11 -8 -16 -14 -12 -14 8
0 -54 -104 -65 -108 -4 -2 -8 -8 -8 -14 0 -6 -12 -25 -27 -43 -16 -18 -44 -51
-63 -75 -53 -65 -82 -93 -196 -190 -35 -31 -122 -88 -186 -123 -61 -34 -188
-88 -188 -80 0 3 -6 1 -12 -4 -12 -9 -47 -21 -88 -29 -8 -2 -45 -10 -82 -17
-67 -14 -342 -16 -398 -3 -14 3 -38 8 -55 12 -51 10 -220 68 -223 76 -2 4 -8
8 -14 8 -12 0 -130 59 -138 69 -3 3 -16 12 -28 19 -22 12 -23 12 -17 -9 15
-45 118 -209 138 -217 4 -2 7 -9 7 -15 0 -7 22 -35 48 -63 26 -28 81 -88 122
-133 41 -46 77 -85 79 -87 8 -8 -132 57 -230 106 -140 70 -129 63 -230 140
-96 73 -201 178 -264 266 -11 15 -35 47 -52 71 -18 24 -30 43 -26 43 3 0 -1 8
-10 18 -8 9 -31 48 -50 86 -31 62 -34 76 -31 138 2 66 9 124 20 193 23 142
112 341 211 472 68 90 223 243 246 243 3 0 18 11 33 25 15 14 29 23 32 21 2
-3 10 0 18 7 31 28 44 37 44 33 0 -3 30 10 68 28 60 31 142 62 182 71 8 2 38
9 65 15 28 7 75 14 105 17 30 3 56 7 58 8 9 8 253 -5 270 -14z"/>
</g>
</svg>
